<mxfile host="Electron" modified="2023-11-19T00:08:22.178Z" agent="Mozilla/5.0 (Windows NT 10.0; WOW64) AppleWebKit/537.36 (KHTML, like Gecko) draw.io/22.0.3 Chrome/114.0.5735.289 Electron/25.8.4 Safari/537.36" etag="TCuEaoSz08ICwwGmYeq_" version="22.0.3" type="device">
  <diagram name="Page-1" id="KQj3kPk9lYOay5QFq8_P">
    <mxGraphModel dx="714" dy="451" grid="1" gridSize="10" guides="1" tooltips="1" connect="1" arrows="1" fold="1" page="1" pageScale="1" pageWidth="850" pageHeight="1100" math="0" shadow="0">
      <root>
        <mxCell id="0" />
        <mxCell id="1" parent="0" />
        <mxCell id="vsZXWvfReJykz1aAKEEe-9" style="edgeStyle=orthogonalEdgeStyle;rounded=0;orthogonalLoop=1;jettySize=auto;html=1;exitX=1;exitY=0;exitDx=0;exitDy=0;entryX=0;entryY=0;entryDx=0;entryDy=0;curved=1;" edge="1" parent="1" source="vsZXWvfReJykz1aAKEEe-1" target="vsZXWvfReJykz1aAKEEe-7">
          <mxGeometry relative="1" as="geometry">
            <Array as="points">
              <mxPoint x="188" y="140" />
              <mxPoint x="322" y="140" />
            </Array>
          </mxGeometry>
        </mxCell>
        <mxCell id="vsZXWvfReJykz1aAKEEe-1" value="&lt;h2&gt;idle&lt;/h2&gt;" style="ellipse;whiteSpace=wrap;html=1;aspect=fixed;" vertex="1" parent="1">
          <mxGeometry x="120" y="160" width="80" height="80" as="geometry" />
        </mxCell>
        <mxCell id="vsZXWvfReJykz1aAKEEe-12" style="edgeStyle=orthogonalEdgeStyle;rounded=0;orthogonalLoop=1;jettySize=auto;html=1;exitX=0;exitY=0;exitDx=0;exitDy=0;entryX=1;entryY=0;entryDx=0;entryDy=0;curved=1;" edge="1" parent="1" source="vsZXWvfReJykz1aAKEEe-4" target="vsZXWvfReJykz1aAKEEe-5">
          <mxGeometry relative="1" as="geometry">
            <Array as="points">
              <mxPoint x="422" y="320" />
              <mxPoint x="278" y="320" />
            </Array>
          </mxGeometry>
        </mxCell>
        <mxCell id="vsZXWvfReJykz1aAKEEe-4" value="&lt;h2&gt;Add&lt;/h2&gt;" style="ellipse;whiteSpace=wrap;html=1;aspect=fixed;" vertex="1" parent="1">
          <mxGeometry x="410" y="330" width="80" height="80" as="geometry" />
        </mxCell>
        <mxCell id="vsZXWvfReJykz1aAKEEe-13" style="edgeStyle=orthogonalEdgeStyle;rounded=0;orthogonalLoop=1;jettySize=auto;html=1;exitX=0;exitY=0;exitDx=0;exitDy=0;entryX=0.5;entryY=1;entryDx=0;entryDy=0;curved=1;" edge="1" parent="1" source="vsZXWvfReJykz1aAKEEe-5" target="vsZXWvfReJykz1aAKEEe-1">
          <mxGeometry relative="1" as="geometry" />
        </mxCell>
        <mxCell id="vsZXWvfReJykz1aAKEEe-15" style="edgeStyle=orthogonalEdgeStyle;rounded=0;orthogonalLoop=1;jettySize=auto;html=1;exitX=1;exitY=1;exitDx=0;exitDy=0;entryX=1;entryY=1;entryDx=0;entryDy=0;curved=1;" edge="1" parent="1" source="vsZXWvfReJykz1aAKEEe-5" target="vsZXWvfReJykz1aAKEEe-6">
          <mxGeometry relative="1" as="geometry">
            <Array as="points">
              <mxPoint x="278" y="440" />
              <mxPoint x="578" y="440" />
            </Array>
          </mxGeometry>
        </mxCell>
        <mxCell id="vsZXWvfReJykz1aAKEEe-5" value="&lt;h2&gt;ld&lt;/h2&gt;" style="ellipse;whiteSpace=wrap;html=1;aspect=fixed;" vertex="1" parent="1">
          <mxGeometry x="210" y="330" width="80" height="80" as="geometry" />
        </mxCell>
        <mxCell id="vsZXWvfReJykz1aAKEEe-11" style="edgeStyle=orthogonalEdgeStyle;rounded=0;orthogonalLoop=1;jettySize=auto;html=1;exitX=0;exitY=1;exitDx=0;exitDy=0;entryX=1;entryY=0;entryDx=0;entryDy=0;curved=1;" edge="1" parent="1" source="vsZXWvfReJykz1aAKEEe-6" target="vsZXWvfReJykz1aAKEEe-4">
          <mxGeometry relative="1" as="geometry" />
        </mxCell>
        <mxCell id="vsZXWvfReJykz1aAKEEe-6" value="&lt;h2&gt;Mul&lt;/h2&gt;" style="ellipse;whiteSpace=wrap;html=1;aspect=fixed;" vertex="1" parent="1">
          <mxGeometry x="510" y="160" width="80" height="80" as="geometry" />
        </mxCell>
        <mxCell id="vsZXWvfReJykz1aAKEEe-10" style="edgeStyle=orthogonalEdgeStyle;rounded=0;orthogonalLoop=1;jettySize=auto;html=1;exitX=1;exitY=0;exitDx=0;exitDy=0;entryX=0;entryY=0;entryDx=0;entryDy=0;curved=1;" edge="1" parent="1" source="vsZXWvfReJykz1aAKEEe-7" target="vsZXWvfReJykz1aAKEEe-6">
          <mxGeometry relative="1" as="geometry">
            <Array as="points">
              <mxPoint x="378" y="140" />
              <mxPoint x="522" y="140" />
            </Array>
          </mxGeometry>
        </mxCell>
        <mxCell id="vsZXWvfReJykz1aAKEEe-7" value="&lt;h2&gt;init&lt;/h2&gt;" style="ellipse;whiteSpace=wrap;html=1;aspect=fixed;" vertex="1" parent="1">
          <mxGeometry x="310" y="160" width="80" height="80" as="geometry" />
        </mxCell>
        <mxCell id="vsZXWvfReJykz1aAKEEe-14" value="&lt;h3&gt;done&lt;/h3&gt;" style="text;html=1;align=center;verticalAlign=middle;resizable=0;points=[];autosize=1;strokeColor=none;fillColor=none;" vertex="1" parent="1">
          <mxGeometry x="120" y="283" width="60" height="60" as="geometry" />
        </mxCell>
        <mxCell id="vsZXWvfReJykz1aAKEEe-16" value="&lt;h3&gt;done&lt;/h3&gt;" style="text;html=1;align=center;verticalAlign=middle;resizable=0;points=[];autosize=1;strokeColor=none;fillColor=none;" vertex="1" parent="1">
          <mxGeometry x="520" y="393" width="60" height="60" as="geometry" />
        </mxCell>
        <mxCell id="vsZXWvfReJykz1aAKEEe-19" value="" style="endArrow=none;html=1;rounded=0;entryX=0.667;entryY=0.283;entryDx=0;entryDy=0;entryPerimeter=0;exitX=0;exitY=0.283;exitDx=0;exitDy=0;exitPerimeter=0;" edge="1" parent="1">
          <mxGeometry width="50" height="50" relative="1" as="geometry">
            <mxPoint x="529.99" y="410" as="sourcePoint" />
            <mxPoint x="570.0100000000001" y="410" as="targetPoint" />
          </mxGeometry>
        </mxCell>
        <mxCell id="vsZXWvfReJykz1aAKEEe-21" value="&lt;h3&gt;ldTmp&lt;/h3&gt;" style="text;html=1;align=center;verticalAlign=middle;resizable=0;points=[];autosize=1;strokeColor=none;fillColor=none;" vertex="1" parent="1">
          <mxGeometry x="215" y="393" width="70" height="60" as="geometry" />
        </mxCell>
        <mxCell id="vsZXWvfReJykz1aAKEEe-22" value="&lt;h3&gt;&lt;span style=&quot;background-color: initial; font-size: 12px; font-weight: normal;&quot;&gt;&lt;font face=&quot;Verdana&quot;&gt;&lt;br&gt;&lt;/font&gt;&lt;/span&gt;&lt;/h3&gt;&lt;h3&gt;&lt;span style=&quot;background-color: initial; font-size: 12px; font-weight: normal;&quot;&gt;&lt;font face=&quot;Verdana&quot;&gt;ldTmp&lt;/font&gt;&lt;/span&gt;&lt;/h3&gt;&lt;h3&gt;&lt;span style=&quot;background-color: initial; font-size: 12px; font-weight: normal;&quot;&gt;&lt;font face=&quot;Verdana&quot;&gt;ldX&lt;/font&gt;&lt;/span&gt;&lt;/h3&gt;&lt;h3&gt;&lt;span style=&quot;background-color: initial; font-size: 12px; font-weight: normal;&quot;&gt;&lt;font face=&quot;Verdana&quot;&gt;selTmp&lt;/font&gt;&lt;/span&gt;&lt;br&gt;&lt;/h3&gt;" style="text;html=1;align=center;verticalAlign=middle;resizable=0;points=[];autosize=1;strokeColor=none;fillColor=none;" vertex="1" parent="1">
          <mxGeometry x="320" y="20" width="70" height="150" as="geometry" />
        </mxCell>
        <mxCell id="vsZXWvfReJykz1aAKEEe-24" value="start" style="text;html=1;align=center;verticalAlign=middle;resizable=0;points=[];autosize=1;strokeColor=none;fillColor=none;" vertex="1" parent="1">
          <mxGeometry x="225" y="118" width="50" height="30" as="geometry" />
        </mxCell>
        <mxCell id="vsZXWvfReJykz1aAKEEe-25" value="start" style="text;html=1;align=center;verticalAlign=middle;resizable=0;points=[];autosize=1;strokeColor=none;fillColor=none;" vertex="1" parent="1">
          <mxGeometry x="90" y="130" width="50" height="30" as="geometry" />
        </mxCell>
        <mxCell id="vsZXWvfReJykz1aAKEEe-26" value="start" style="text;html=1;align=center;verticalAlign=middle;resizable=0;points=[];autosize=1;strokeColor=none;fillColor=none;" vertex="1" parent="1">
          <mxGeometry x="240" y="220" width="50" height="30" as="geometry" />
        </mxCell>
        <mxCell id="vsZXWvfReJykz1aAKEEe-27" value="" style="endArrow=none;html=1;rounded=0;exitX=0;exitY=0.283;exitDx=0;exitDy=0;exitPerimeter=0;" edge="1" parent="1">
          <mxGeometry width="50" height="50" relative="1" as="geometry">
            <mxPoint x="99.98000000000002" y="140" as="sourcePoint" />
            <mxPoint x="130" y="140" as="targetPoint" />
          </mxGeometry>
        </mxCell>
        <mxCell id="vsZXWvfReJykz1aAKEEe-28" value="" style="curved=1;endArrow=classic;html=1;rounded=0;entryX=0.172;entryY=0.09;entryDx=0;entryDy=0;entryPerimeter=0;exitX=-0.022;exitY=0.451;exitDx=0;exitDy=0;exitPerimeter=0;" edge="1" parent="1" source="vsZXWvfReJykz1aAKEEe-1">
          <mxGeometry width="50" height="50" relative="1" as="geometry">
            <mxPoint x="125.11999999999999" y="194.71999999999997" as="sourcePoint" />
            <mxPoint x="140" y="167.20000000000005" as="targetPoint" />
            <Array as="points">
              <mxPoint x="70" y="200" />
              <mxPoint x="56.24" y="160" />
            </Array>
          </mxGeometry>
        </mxCell>
        <mxCell id="vsZXWvfReJykz1aAKEEe-29" value="" style="curved=1;endArrow=classic;html=1;rounded=0;entryX=0.172;entryY=0.09;entryDx=0;entryDy=0;entryPerimeter=0;" edge="1" parent="1" source="vsZXWvfReJykz1aAKEEe-7">
          <mxGeometry width="50" height="50" relative="1" as="geometry">
            <mxPoint x="288" y="216" as="sourcePoint" />
            <mxPoint x="310" y="187.20000000000005" as="targetPoint" />
            <Array as="points">
              <mxPoint x="280" y="240" />
              <mxPoint x="270" y="210" />
            </Array>
          </mxGeometry>
        </mxCell>
        <mxCell id="vsZXWvfReJykz1aAKEEe-30" value="start" style="text;html=1;align=center;verticalAlign=middle;resizable=0;points=[];autosize=1;strokeColor=none;fillColor=none;" vertex="1" parent="1">
          <mxGeometry x="440" y="110" width="50" height="30" as="geometry" />
        </mxCell>
        <mxCell id="vsZXWvfReJykz1aAKEEe-31" value="" style="endArrow=none;html=1;rounded=0;exitX=0;exitY=0.283;exitDx=0;exitDy=0;exitPerimeter=0;" edge="1" parent="1">
          <mxGeometry width="50" height="50" relative="1" as="geometry">
            <mxPoint x="449.98" y="120" as="sourcePoint" />
            <mxPoint x="480" y="120" as="targetPoint" />
          </mxGeometry>
        </mxCell>
      </root>
    </mxGraphModel>
  </diagram>
</mxfile>
